<svg xmlns="http://www.w3.org/2000/svg" width="20" height="20"><path d="M10 20A10.011 10.011 0 010 10 10.011 10.011 0 0110 0a10.011 10.011 0 0110 10 10.011 10.011 0 01-10 10zm.031-15a43.09 43.09 0 00-5.81.3 1.851 1.851 0 00-1.3 1.262 18.415 18.415 0 00-.324 3.508 18.341 18.341 0 00.324 3.495 1.851 1.851 0 001.3 1.262 45.985 45.985 0 005.831.3 46.1 46.1 0 005.831-.3 1.853 1.853 0 001.3-1.262 18.476 18.476 0 00.311-3.495 18.457 18.457 0 00-.311-3.508 1.853 1.853 0 00-1.3-1.262 46.13 46.13 0 00-5.831-.3zm-1.469 7.242V7.9l3.887 2.177-3.886 2.169z"/></svg>