<svg xmlns="http://www.w3.org/2000/svg" xmlns:xlink="http://www.w3.org/1999/xlink" width="40" height="40" viewBox="0 0 40 40"><defs><linearGradient id="a" x1="0.5" x2="0.5" y2="1" gradientUnits="objectBoundingBox"><stop offset="0" stop-color="#ff6c2b"/><stop offset="1" stop-color="#e54500"/></linearGradient></defs><g transform="translate(-276 -392)"><circle cx="20" cy="20" r="20" transform="translate(276 392)" fill="url(#a)"/><path d="M3.349,14.961H.247V4.973h3.1ZM1.8,3.61A1.8,1.8,0,1,1,3.593,1.8,1.811,1.811,0,0,1,1.8,3.61ZM14.958,14.961h-3.1V10.1c0-1.159-.023-2.645-1.613-2.645-1.613,0-1.86,1.259-1.86,2.561v4.946h-3.1V4.973H8.267V6.335H8.31a3.259,3.259,0,0,1,2.935-1.613c3.139,0,3.716,2.067,3.716,4.752v5.487Z" transform="translate(289 405)"/></g></svg>