<svg xmlns="http://www.w3.org/2000/svg" xmlns:xlink="http://www.w3.org/1999/xlink" width="40" height="40" viewBox="0 0 40 40"><defs><linearGradient id="a" x1="0.5" x2="0.5" y2="1" gradientUnits="objectBoundingBox"><stop offset="0" stop-color="#ff6c2b"/><stop offset="1" stop-color="#e54500"/></linearGradient></defs><g transform="translate(-1753 -671)"><circle cx="20" cy="20" r="20" transform="translate(1753 671)" fill="url(#a)"/><path d="M16.519,8.67a.2.2,0,0,1,.319.155V15.55a1.579,1.579,0,0,1-1.579,1.579H1.579A1.579,1.579,0,0,1,0,15.55V8.828a.2.2,0,0,1,.319-.155c.737.572,1.713,1.3,5.068,3.736.694.506,1.865,1.572,3.032,1.565,1.174.01,2.368-1.079,3.035-1.565C14.809,9.972,15.782,9.242,16.519,8.67Zm-8.1,4.249c.763.013,1.861-.96,2.414-1.361,4.364-3.167,4.7-3.443,5.7-4.232a.787.787,0,0,0,.3-.622V6.079A1.579,1.579,0,0,0,15.259,4.5H1.579A1.579,1.579,0,0,0,0,6.079V6.7a.792.792,0,0,0,.3.622C1.309,8.111,1.641,8.39,6,11.557,6.557,11.959,7.656,12.932,8.419,12.919Z" transform="translate(1764.638 680.667)"/></g></svg>