<svg xmlns="http://www.w3.org/2000/svg" width="20.06" height="20.06" viewBox="0 0 20.06 20.06"><circle cx="1" cy="1" r="1" transform="translate(13.901 7.029)" fill="#ff6c2b"/><path d="M16.925,1.567H15.907V.784a.784.784,0,0,0-1.567,0v.784H10.774V.784a.784.784,0,0,0-1.567,0v.784H5.681V.784a.784.784,0,1,0-1.567,0v.784H3.134A3.138,3.138,0,0,0,0,4.7V16.925a3.138,3.138,0,0,0,3.134,3.134H9.129a.784.784,0,1,0,0-1.567H3.134a1.569,1.569,0,0,1-1.567-1.567V4.7A1.569,1.569,0,0,1,3.134,3.134h.979v.784a.784.784,0,1,0,1.567,0V3.134H9.207v.784a.784.784,0,0,0,1.567,0V3.134h3.565v.784a.784.784,0,0,0,1.567,0V3.134h1.019A1.569,1.569,0,0,1,18.492,4.7V9.168a.784.784,0,1,0,1.567,0V4.7A3.138,3.138,0,0,0,16.925,1.567Z" fill="#ff6c2b"/><path d="M274.741,270a4.741,4.741,0,1,0,4.741,4.741A4.746,4.746,0,0,0,274.741,270Zm0,7.914a3.173,3.173,0,1,1,3.173-3.173A3.177,3.177,0,0,1,274.741,277.914Z" transform="translate(-259.422 -259.422)" fill="#ff6c2b"/><path d="M372.92,331.606h-.353v-.823a.784.784,0,0,0-1.567,0v1.606a.784.784,0,0,0,.784.784h1.136a.784.784,0,1,0,0-1.567Z" transform="translate(-356.465 -317.071)" fill="#ff6c2b"/><circle cx="1" cy="1" r="1" transform="translate(10.901 7.029)" fill="#ff6c2b"/><circle cx="1" cy="1" r="1" transform="translate(6.901 11.029)" fill="#ff6c2b"/><circle cx="1" cy="1" r="1" transform="translate(3.901 7.029)" fill="#ff6c2b"/><circle cx="1" cy="1" r="1" transform="translate(3.901 11.029)" fill="#ff6c2b"/><circle cx="1" cy="1" r="1" transform="translate(3.901 14.029)" fill="#ff6c2b"/><circle cx="1" cy="1" r="1" transform="translate(6.901 14.029)" fill="#ff6c2b"/><circle cx="1" cy="1" r="1" transform="translate(6.901 7.029)" fill="#ff6c2b"/></svg>