<svg xmlns="http://www.w3.org/2000/svg" width="45.099" height="39.958" viewBox="0 0 45.099 39.958"><g transform="translate(0 -1.54)"><path d="M3.674,37.469a.937.937,0,0,0,.945,1.008c1.225,0,11.368-.013,11.368-.013L16,29.149s-.16-1.536,1.33-1.536h4.717a1.462,1.462,0,0,1,1.654,1.536l-.02,9.285H34.813a1.166,1.166,0,0,0,1.193-1.255V20.005L20.323,6.055,3.674,20.005S3.674,37.469,3.674,37.469Z" transform="translate(2.458 3.021)" fill="#ff6c2b"/><path d="M0,21.728s1.414,2.605,4.5,0L22.92,6.142,40.194,21.631c3.569,2.574,4.906,0,4.906,0L22.92,1.54Z" fill="#ff6c2b"/><path d="M25.611,4.275H21.168l.018,5.388,4.425,3.754Z" transform="translate(14.164 1.83)" fill="#ff6c2b"/></g></svg>