<svg xmlns="http://www.w3.org/2000/svg" width="21.949" height="17.357" viewBox="0 0 21.949 17.357"><g transform="translate(0 2.294)"><g transform="translate(0 0)"><path d="M17.861,87.288H9.942L8.367,85.416a.269.269,0,0,0-.215-.1H1.762A1.775,1.775,0,0,0,0,87.094V98.609a1.775,1.775,0,0,0,1.773,1.773H17.861a1.775,1.775,0,0,0,1.773-1.773V89.061A1.775,1.775,0,0,0,17.861,87.288Z" transform="translate(0 -85.319)" fill="#ff6c2b"/></g></g><g transform="translate(2.335 0)"><path d="M61.252,44.648H53.331l-1.575-1.872a.269.269,0,0,0-.215-.1H45.154A1.773,1.773,0,0,0,43.4,44.211h5.825a1.031,1.031,0,0,1,.792.368l1.345,1.6h7.564a2.539,2.539,0,0,1,2.535,2.535v9.012a1.773,1.773,0,0,0,1.554-1.758V46.419A1.775,1.775,0,0,0,61.252,44.648Z" transform="translate(-43.4 -42.679)" fill="#ff6c2b"/></g></svg>