<svg xmlns="http://www.w3.org/2000/svg" width="130" height="130" viewBox="0 0 130 130"><g transform="translate(-269.172 -577.172)"><g transform="translate(269.172 577.172)" fill="#fff" stroke="#ff6c2b" stroke-width="2" stroke-dasharray="2 8"><circle cx="65" cy="65" r="65" stroke="none"/><circle cx="65" cy="65" r="64" fill="none"/></g><circle cx="54" cy="54" r="54" transform="translate(280.172 588.172)" fill="none"/><g transform="translate(294.195 602.083)"><g transform="translate(0 0.491)"><path d="M66.812,28.171a1.559,1.559,0,0,0-.583,1.564A1.54,1.54,0,0,0,67.4,30.9c.482.106.928.1,2.3-.957a12.564,12.564,0,0,0,2.344-2.359l.364-.483c3.118-4.147,10.419-13.857,20.962-13.33,8.695.635,14.86,7.2,17.824,18.991.1.4.163.646.231.835.453,1.928,1.213,4.33,2.307,5.121a1.535,1.535,0,0,0,1.867-2.436,13.757,13.757,0,0,1-1.212-3.5,1.483,1.483,0,0,0-.084-.254c-.028-.1-.083-.318-.132-.514a38.27,38.27,0,0,0-4.746-11.5c-3.912-6.028-9.243-9.326-15.852-9.8l-.033,0C81.367,10.089,73.372,20.72,69.96,25.261l-.36.477a9.2,9.2,0,0,1-2.419,2.227A1.561,1.561,0,0,0,66.812,28.171Z" transform="translate(-51.208 -8.304)" fill="#ff6c2b"/><path d="M105.689,82.124a10.317,10.317,0,0,0,.076-8.2,8.38,8.38,0,0,0-5.335-4.334c-3.671-1.123-8.122.915-12.2,5.587a69.749,69.749,0,0,1-11.95,9.893,41.987,41.987,0,0,1-9.166,3.973A1.535,1.535,0,0,0,67.922,92a44.548,44.548,0,0,0,9.953-4.311A71.49,71.49,0,0,0,90.534,77.2c2.475-2.836,6.138-5.555,8.995-4.68a5.328,5.328,0,0,1,3.466,2.724,7.264,7.264,0,0,1-.157,5.737c-1.564,3.909-6.434,8.628-13.715,13.29-3.651,2.339-12.842,8.078-19.333,10.854a1.534,1.534,0,0,0,1.2,2.822c6.7-2.866,16.068-8.711,19.784-11.09C96.307,93.319,103.381,87.889,105.689,82.124Z" transform="translate(-51.043 -53.635)" fill="#ff6c2b"/><path d="M82.945,47.774c-.7.768-1.322,1.591-2,2.379a31.36,31.36,0,0,1-2.853,2.9A16.59,16.59,0,0,1,75,55.36c-1.294.743-2.614,1.495-3.956,2.148a8.544,8.544,0,0,1-1.376.528A1.536,1.536,0,0,0,70.485,61,21.716,21.716,0,0,0,74.9,58.911a30.411,30.411,0,0,0,3.486-2.13,33.615,33.615,0,0,0,5.687-5.618c.686-.843,1.421-1.647,2.188-2.418.42-.422.854-.828,1.3-1.224.231-.206.465-.408.7-.607.12-.1.242-.2.364-.3.033-.026.271-.214.332-.264a22.594,22.594,0,0,1,3.406-2.162A13.855,13.855,0,0,1,96,42.914a6.541,6.541,0,0,1,.9-.141,1.567,1.567,0,0,0,1.536-1.535A1.538,1.538,0,0,0,96.9,39.7C91.348,40.275,86.6,43.745,82.945,47.774Z" transform="translate(-53.024 -30.747)" fill="#ff6c2b"/><path d="M72.162,125.231c3.335-1.144,20.46-7.539,30.047-20.98a1.534,1.534,0,0,0-2.5-1.783c-9.045,12.678-25.368,18.767-28.547,19.86-.069.023-.109.037-.124.043a1.536,1.536,0,0,0,.545,2.972,1.554,1.554,0,0,0,.524-.093Z" transform="translate(-54.189 -78.807)" fill="#ff6c2b"/><path d="M132.6,215.465c-2.127-.709-4.732-2.563-7.249-4.356-3.648-2.6-6.8-4.841-9.361-4.4-1.928.333-5.3,2.485-10.612,5.99-3.834,2.527-8.178,5.391-10.068,5.9a1.536,1.536,0,0,0,.4,3.019,1.519,1.519,0,0,0,.4-.053c2.368-.638,6.541-3.388,10.96-6.3,3.569-2.353,8.01-5.28,9.445-5.528,1.3-.223,4.494,2.047,7.058,3.874,2.7,1.923,5.5,3.914,8.059,4.768a1.536,1.536,0,0,0,.972-2.915Z" transform="translate(-72.848 -159.903)" fill="#ff6c2b"/><path d="M147.708,255.925a37.061,37.061,0,0,1-5.194-2.892c-4.109-2.539-6.721-4.08-8.6-3.756-1.9.328-5.884,3.038-12.578,7.923-.819.6-1.526,1.114-2.016,1.461a1.535,1.535,0,1,0,1.771,2.507c.51-.36,1.226-.883,2.055-1.489,2.664-1.944,9.739-7.11,11.274-7.375.957-.065,4.413,2.066,6.476,3.34a37.079,37.079,0,0,0,5.765,3.167,1.535,1.535,0,1,0,1.043-2.887Z" transform="translate(-91.804 -192.842)" fill="#ff6c2b"/><path d="M163.439,296.505c-.862-.563-1.655-1.129-2.422-1.676-2.518-1.8-4.694-3.351-7.079-2.937-2.688.463-6.964,4.765-7.795,5.622a1.536,1.536,0,1,0,2.207,2.135c2.055-2.124,4.976-4.537,6.11-4.732s2.814,1.013,4.775,2.411c.754.539,1.609,1.15,2.526,1.748a1.535,1.535,0,1,0,1.677-2.572Z" transform="translate(-112.72 -225.79)" fill="#ff6c2b"/><path d="M254.077,148.972a14.437,14.437,0,0,1-3.694-2.005,5.874,5.874,0,0,1-1.985-3.777c-.321-1.95-3.279-1.121-2.96.816.655,3.983,3.587,6.138,7.089,7.618a1.573,1.573,0,0,0,2.1-.551A1.535,1.535,0,0,0,254.077,148.972Z" transform="translate(-189.849 -109.946)" fill="#ff6c2b"/><path d="M231.041,179.439a14.247,14.247,0,0,1-3.248-1.526,12.233,12.233,0,0,1-5.263-5.676,1.571,1.571,0,0,0-1.889-1.072,1.538,1.538,0,0,0-1.072,1.889,16.864,16.864,0,0,0,10.655,9.346C232.122,182.984,232.927,180.021,231.041,179.439Z" transform="translate(-169.793 -132.403)" fill="#ff6c2b"/><path d="M2.484,2.546H17.4V.166H.1v17.3h2.38Z" transform="translate(-0.08 -0.166)" fill="#ff6c2b"/><path d="M276.565.166v2.38h14.919V17.464h2.38V.166Z" transform="translate(-213.947 -0.166)" fill="#ff6c2b"/><path d="M2.38,276.4H0v17.3H17.3v-2.38H2.38Z" transform="translate(0 -213.859)" fill="#ff6c2b"/><path d="M291.374,291.32H276.456v2.38h17.3V276.4h-2.38Z" transform="translate(-213.863 -213.859)" fill="#ff6c2b"/></g><path d="M0,76V5H23V0H48V5H70V76Z" transform="translate(5)" fill="#fff"/></g><g transform="translate(307.609 629.227)"><path d="M41.984,109.788l-.368-.005a12.875,12.875,0,0,0-8.995,3.846c-1.129,1.066-2.836,2.676-4,3.072a7.175,7.175,0,0,1-2.218.418,7.125,7.125,0,0,1-2.223-.418c-1.171-.4-2.881-2.013-4.017-3.086a12.87,12.87,0,0,0-8.989-3.832l-.369.006c-3.642.115-6.443,1.2-8.322,3.224a10.276,10.276,0,0,0-2.473,7.542c.2,4.52,1.772,15.033,12.053,15.033,7.58,0,10.494-7.923,11.557-12.646a4.543,4.543,0,0,0,.075-.452,2.429,2.429,0,0,1,.928-1.055,3.346,3.346,0,0,1,3.545,0,2.473,2.473,0,0,1,.926,1.036c.021.168.045.327.078.472,1.063,4.721,3.974,12.641,11.551,12.644,10.288,0,11.863-10.513,12.063-15.033a10.272,10.272,0,0,0-2.476-7.542C48.435,110.987,45.635,109.9,41.984,109.788ZM21.239,122.407c-.9,4.008-3.3,10.733-9.167,10.736h-.006c-8.166,0-9.443-8.88-9.613-12.7a7.89,7.89,0,0,1,1.825-5.771c1.419-1.528,3.64-2.35,6.6-2.443l.31,0c4.261,0,7.334,2.85,9.162,5.239A7.941,7.941,0,0,1,21.239,122.407Zm29.107-1.961c-.167,3.817-1.435,12.7-9.611,12.7h-.008c-5.874,0-8.264-6.727-9.165-10.736a7.932,7.932,0,0,1,.89-4.942c1.827-2.389,4.9-5.237,9.162-5.238l.3,0c2.965.094,5.188.915,6.6,2.443A7.89,7.89,0,0,1,50.346,120.446Z" transform="translate(0 -109.783)" fill="#ff6c2b"/></g></g></svg>