<svg xmlns="http://www.w3.org/2000/svg" xmlns:xlink="http://www.w3.org/1999/xlink" width="1056" height="14" viewBox="0 0 1056 14"><defs><clipPath id="a"><rect width="1056" height="14" fill="none"/></clipPath></defs><g opacity="0.38" clip-path="url(#a)"><g transform="translate(-213 -657)"><circle cx="7" cy="7" r="7" transform="translate(213 657)" fill="#8e8e8e" opacity="0.28"/></g><g transform="translate(-174 -657)"><circle cx="7" cy="7" r="7" transform="translate(213 657)" fill="#8e8e8e" opacity="0.28"/></g><g transform="translate(-135 -657)"><circle cx="7" cy="7" r="7" transform="translate(213 657)" fill="#8e8e8e" opacity="0.28"/></g><g transform="translate(-96 -657)"><circle cx="7" cy="7" r="7" transform="translate(213 657)" fill="#8e8e8e" opacity="0.28"/></g><g transform="translate(-57 -657)"><circle cx="7" cy="7" r="7" transform="translate(213 657)" fill="#8e8e8e" opacity="0.28"/></g><g transform="translate(-18 -657)"><circle cx="7" cy="7" r="7" transform="translate(213 657)" fill="#8e8e8e" opacity="0.28"/></g><g transform="translate(21 -657)"><circle cx="7" cy="7" r="7" transform="translate(213 657)" fill="#8e8e8e" opacity="0.28"/></g><g transform="translate(60 -657)"><circle cx="7" cy="7" r="7" transform="translate(213 657)" fill="#8e8e8e" opacity="0.28"/></g><g transform="translate(99 -657)"><circle cx="7" cy="7" r="7" transform="translate(213 657)" fill="#8e8e8e" opacity="0.28"/></g><g transform="translate(138 -657)"><circle cx="7" cy="7" r="7" transform="translate(213 657)" fill="#8e8e8e" opacity="0.28"/></g><g transform="translate(177 -657)"><circle cx="7" cy="7" r="7" transform="translate(213 657)" fill="#8e8e8e" opacity="0.28"/></g><g transform="translate(216 -657)"><circle cx="7" cy="7" r="7" transform="translate(213 657)" fill="#8e8e8e" opacity="0.28"/></g><g transform="translate(255 -657)"><circle cx="7" cy="7" r="7" transform="translate(213 657)" fill="#8e8e8e" opacity="0.28"/></g><g transform="translate(294 -657)"><circle cx="7" cy="7" r="7" transform="translate(213 657)" fill="#8e8e8e" opacity="0.28"/></g><g transform="translate(333 -657)"><circle cx="7" cy="7" r="7" transform="translate(213 657)" fill="#8e8e8e" opacity="0.28"/></g><g transform="translate(372 -657)"><circle cx="7" cy="7" r="7" transform="translate(213 657)" fill="#8e8e8e" opacity="0.28"/></g><g transform="translate(411 -657)"><circle cx="7" cy="7" r="7" transform="translate(213 657)" fill="#8e8e8e" opacity="0.28"/></g><g transform="translate(450 -657)"><circle cx="7" cy="7" r="7" transform="translate(213 657)" fill="#8e8e8e" opacity="0.28"/></g><g transform="translate(489 -657)"><circle cx="7" cy="7" r="7" transform="translate(213 657)" fill="#8e8e8e" opacity="0.28"/></g><g transform="translate(528 -657)"><circle cx="7" cy="7" r="7" transform="translate(213 657)" fill="#8e8e8e" opacity="0.28"/></g><g transform="translate(567 -657)"><circle cx="7" cy="7" r="7" transform="translate(213 657)" fill="#8e8e8e" opacity="0.28"/></g><g transform="translate(606 -657)"><circle cx="7" cy="7" r="7" transform="translate(213 657)" fill="#8e8e8e" opacity="0.28"/></g><g transform="translate(645 -657)"><circle cx="7" cy="7" r="7" transform="translate(213 657)" fill="#8e8e8e" opacity="0.28"/></g><g transform="translate(684 -657)"><circle cx="7" cy="7" r="7" transform="translate(213 657)" fill="#8e8e8e" opacity="0.28"/></g><g transform="translate(723 -657)"><circle cx="7" cy="7" r="7" transform="translate(213 657)" fill="#8e8e8e" opacity="0.28"/></g><g transform="translate(762 -657)"><circle cx="7" cy="7" r="7" transform="translate(213 657)" fill="#8e8e8e" opacity="0.28"/></g><g transform="translate(801 -657)"><circle cx="7" cy="7" r="7" transform="translate(213 657)" fill="#8e8e8e" opacity="0.28"/></g><g transform="translate(840 -657)"><circle cx="7" cy="7" r="7" transform="translate(213 657)" fill="#8e8e8e" opacity="0.28"/></g></g></svg>