<svg xmlns="http://www.w3.org/2000/svg" xmlns:xlink="http://www.w3.org/1999/xlink" width="751.999" height="491" viewBox="0 0 751.999 491"><defs><filter id="crr-a" x="260.999" y="0" width="491" height="491" filterUnits="userSpaceOnUse"><feOffset dx="3" dy="3" input="SourceAlpha"/><feGaussianBlur stdDeviation="49.5" result="b"/><feFlood flood-opacity="0.078"/><feComposite operator="in" in2="b"/><feComposite in="SourceGraphic"/></filter><filter id="crr-c" x="207.999" y="0" width="491" height="491" filterUnits="userSpaceOnUse"><feOffset dx="3" dy="3" input="SourceAlpha"/><feGaussianBlur stdDeviation="49.5" result="d"/><feFlood flood-opacity="0.078"/><feComposite operator="in" in2="d"/><feComposite in="SourceGraphic"/></filter><filter id="crr-e" x="153.999" y="0" width="491" height="491" filterUnits="userSpaceOnUse"><feOffset dx="3" dy="3" input="SourceAlpha"/><feGaussianBlur stdDeviation="49.5" result="f"/><feFlood flood-opacity="0.078"/><feComposite operator="in" in2="f"/><feComposite in="SourceGraphic"/></filter><filter id="crr-g" x="101" y="0" width="491" height="491" filterUnits="userSpaceOnUse"><feOffset dx="3" dy="3" input="SourceAlpha"/><feGaussianBlur stdDeviation="49.5" result="h"/><feFlood flood-opacity="0.078"/><feComposite operator="in" in2="h"/><feComposite in="SourceGraphic"/></filter><filter id="crr-i" x="48" y="0" width="491" height="491" filterUnits="userSpaceOnUse"><feOffset dx="3" dy="3" input="SourceAlpha"/><feGaussianBlur stdDeviation="49.5" result="j"/><feFlood flood-opacity="0.078"/><feComposite operator="in" in2="j"/><feComposite in="SourceGraphic"/></filter><filter id="crr-k" x="0" y="0" width="491" height="491" filterUnits="userSpaceOnUse"><feOffset dx="3" dy="3" input="SourceAlpha"/><feGaussianBlur stdDeviation="49.5" result="l"/><feFlood flood-opacity="0.078"/><feComposite operator="in" in2="l"/><feComposite in="SourceGraphic"/></filter></defs><g transform="translate(145.607 145.496)"><g transform="matrix(1, 0, 0, 1, -145.61, -145.5)" filter="url(#crr-a)"><circle cx="97" cy="97" r="97" transform="translate(406.5 145.5)" fill="#fff" opacity="0.5"/></g><g transform="matrix(1, 0, 0, 1, -145.61, -145.5)" filter="url(#crr-c)"><circle cx="97" cy="97" r="97" transform="translate(353.5 145.5)" fill="#fff" opacity="0.6"/></g><g transform="matrix(1, 0, 0, 1, -145.61, -145.5)" filter="url(#crr-e)"><circle cx="97" cy="97" r="97" transform="translate(299.5 145.5)" fill="#fff" opacity="0.7"/></g><g transform="matrix(1, 0, 0, 1, -145.61, -145.5)" filter="url(#crr-g)"><circle cx="97" cy="97" r="97" transform="translate(246.5 145.5)" fill="#fff" opacity="0.8"/></g><g transform="matrix(1, 0, 0, 1, -145.61, -145.5)" filter="url(#crr-i)"><circle cx="97" cy="97" r="97" transform="translate(193.5 145.5)" fill="#fff" opacity="0.9"/></g><g transform="matrix(1, 0, 0, 1, -145.61, -145.5)" filter="url(#crr-k)"><circle cx="97" cy="97" r="97" transform="translate(145.5 145.5)" fill="#fff"/></g></g></svg>