<svg xmlns="http://www.w3.org/2000/svg" width="49.947" height="43.548" viewBox="0 0 49.947 43.548"><path d="M35.934,38.7a94.614,94.614,0,0,0-9.3-4.044,1.171,1.171,0,0,1-.615-.476,15.542,15.542,0,0,1-.623-1.771,1.233,1.233,0,0,0-.634-.93.524.524,0,0,1-.217-.412c.025-1.387-.3-2.844.732-4.054a.642.642,0,0,0,.067-.136c.556-1.214.65-2.6,1.428-3.736a.186.186,0,0,0,.028-.094c.091-.866.182-1.724.257-2.587a.4.4,0,0,0-.178-.33c-.427-.149-.4-.495-.4-.837,0-1.685,0-1.93,0-3.615a3.222,3.222,0,0,0-1.028-2.518c-.844-.757-1.71-1.49-2.578-2.222-.416-.354-.455-.627-.062-1.015a4.591,4.591,0,0,1,.6-.44c-.045-.067-.089-.132-.132-.2a5.36,5.36,0,0,0-.779,0c-.96.155-1.923.291-2.863.512a11.835,11.835,0,0,0-5,2.19,4.485,4.485,0,0,0-1.893,3.134c-.05.71-.044,1.425-.05,2.133-.006,1.16.011.878-.014,2.032-.006.189-.109.5-.241.54-.467.153-.483.452-.418.842.046.269.011.548.07.81.161.724.333,1.448.542,2.16a13.918,13.918,0,0,1,.541,1.571,5.308,5.308,0,0,0,1.3,2.83.82.82,0,0,1,.2.54c-.057.827-.143,1.658-.255,2.482a.612.612,0,0,1-.328.431c-.552.112-.636.536-.769.968-.172.567-.357,1.132-.577,1.68a.866.866,0,0,1-.409.426c-.978.424-1.977.817-2.965,1.232-1.049.441-2.11.863-3.136,1.351-1.058.507-2.084,1.075-3.118,1.631a7.615,7.615,0,0,0-1.655,1.135L0,46.054c7.018,0,10.681,5.074,17.985,5.7l-2.691-3.713,4.172-11.413-1.29-2.771H20.76l-1.294,2.771,4.173,11.413-2.62,3.623c5.317-.891,13.8-5.61,17.919-5.61L37.5,39.842A5.986,5.986,0,0,0,35.934,38.7Z" transform="translate(0 -8.206)" fill="#ff6c2b"/><path d="M73.909,6.955a8.837,8.837,0,0,0-8.827,8.828c0,.192.007.386.021.586L61.05,19a.725.725,0,0,0,.225,1.312l6.185,1.493A8.827,8.827,0,1,0,73.909,6.955Zm0,16.206a7.388,7.388,0,0,1-5.522-2.487.728.728,0,0,0-.372-.224L63.249,19.3l3.009-1.955a.725.725,0,0,0,.325-.691,7.479,7.479,0,0,1-.054-.872,7.38,7.38,0,1,1,7.38,7.379Z" transform="translate(-32.79 -6.955)" fill="#ff6c2b"/><path d="M81.942,25.6H80.717a.154.154,0,0,0-.154.154V29.84a.153.153,0,0,0,.154.153h1.225a.152.152,0,0,0,.154-.153V25.754A.154.154,0,0,0,81.942,25.6Z" transform="translate(-43.505 -17.024)" fill="#ff6c2b"/><path d="M88.854,21.936H87.629a.153.153,0,0,0-.154.154v5.771a.153.153,0,0,0,.154.153h1.225a.153.153,0,0,0,.154-.153V22.09A.154.154,0,0,0,88.854,21.936Z" transform="translate(-47.238 -15.045)" fill="#ff6c2b"/><path d="M95.461,14.816H94.235a.152.152,0,0,0-.153.153v9.047a.152.152,0,0,0,.153.153h1.226a.152.152,0,0,0,.153-.153V14.969A.153.153,0,0,0,95.461,14.816Z" transform="translate(-50.805 -11.2)" fill="#ff6c2b"/></svg>