<svg xmlns="http://www.w3.org/2000/svg" width="43.962" height="46.066" viewBox="0 0 43.962 46.066"><path d="M34.637,15.223V9.76a4.219,4.219,0,0,0,2.43-3.8V5.835a4.221,4.221,0,0,0-4.208-4.21h-.129a4.221,4.221,0,0,0-4.21,4.208v.129a4.215,4.215,0,0,0,2.4,3.787l.025.012v5.475a11.94,11.94,0,0,0-5.7,2.515l.023-.017L10.247,6.031A4.793,4.793,0,1,0,8.026,8.939L8,8.95l14.773,11.5a11.979,11.979,0,0,0,.209,13.537l-.025-.036-4.5,4.5a3.778,3.778,0,0,0-1.113-.182h0a3.9,3.9,0,1,0,3.9,3.9,3.8,3.8,0,0,0-.19-1.142l.008.027L25.515,36.6a11.991,11.991,0,1,0,9.179-21.37l-.069-.01Zm-1.85,18a6.154,6.154,0,1,1,6.169-6.154v0A6.154,6.154,0,0,1,32.8,33.227Z" transform="translate(-0.822 -0.002)" fill="#ff6c2b"/></svg>