<svg xmlns="http://www.w3.org/2000/svg" width="20" height="20"><path d="M10 20A10.011 10.011 0 010 10 10.011 10.011 0 0110 0a10.011 10.011 0 0110 10 10.011 10.011 0 01-10 10zm2.026-10.186c1.237 0 1.237 1.174 1.237 2.03v3.731h2.376v-4.211c0-1.894-.346-3.647-2.852-3.647a2.513 2.513 0 00-2.253 1.238h-.033V7.909H8.218v7.666h2.379v-3.8c.003-.967.171-1.961 1.429-1.961zm-7.678-1.9v7.666h2.38V7.909zm1.189-3.816a1.38 1.38 0 00-1.378 1.379 1.386 1.386 0 001.378 1.391 1.387 1.387 0 001.379-1.391 1.38 1.38 0 00-1.379-1.384z"/></svg>
