<svg xmlns="http://www.w3.org/2000/svg" xmlns:xlink="http://www.w3.org/1999/xlink" width="751.999" height="491" viewBox="0 0 751.999 491"><defs><filter id="crl-a" x="0" y="0" width="491" height="491" filterUnits="userSpaceOnUse"><feOffset dx="3" dy="3" input="SourceAlpha"/><feGaussianBlur stdDeviation="49.5" result="b"/><feFlood flood-opacity="0.078"/><feComposite operator="in" in2="b"/><feComposite in="SourceGraphic"/></filter><filter id="crl-c" x="53" y="0" width="491" height="491" filterUnits="userSpaceOnUse"><feOffset dx="3" dy="3" input="SourceAlpha"/><feGaussianBlur stdDeviation="49.5" result="d"/><feFlood flood-opacity="0.078"/><feComposite operator="in" in2="d"/><feComposite in="SourceGraphic"/></filter><filter id="crl-e" x="107" y="0" width="491" height="491" filterUnits="userSpaceOnUse"><feOffset dx="3" dy="3" input="SourceAlpha"/><feGaussianBlur stdDeviation="49.5" result="f"/><feFlood flood-opacity="0.078"/><feComposite operator="in" in2="f"/><feComposite in="SourceGraphic"/></filter><filter id="crl-g" x="159.999" y="0" width="491" height="491" filterUnits="userSpaceOnUse"><feOffset dx="3" dy="3" input="SourceAlpha"/><feGaussianBlur stdDeviation="49.5" result="h"/><feFlood flood-opacity="0.078"/><feComposite operator="in" in2="h"/><feComposite in="SourceGraphic"/></filter><filter id="crl-i" x="212.999" y="0" width="491" height="491" filterUnits="userSpaceOnUse"><feOffset dx="3" dy="3" input="SourceAlpha"/><feGaussianBlur stdDeviation="49.5" result="j"/><feFlood flood-opacity="0.078"/><feComposite operator="in" in2="j"/><feComposite in="SourceGraphic"/></filter><filter id="crl-k" x="260.999" y="0" width="491" height="491" filterUnits="userSpaceOnUse"><feOffset dx="3" dy="3" input="SourceAlpha"/><feGaussianBlur stdDeviation="49.5" result="l"/><feFlood flood-opacity="0.078"/><feComposite operator="in" in2="l"/><feComposite in="SourceGraphic"/></filter></defs><g transform="translate(145.5 145.5)"><g transform="matrix(1, 0, 0, 1, -145.5, -145.5)" filter="url(#crl-a)"><circle cx="97" cy="97" r="97" transform="translate(145.5 145.5)" fill="#fff" opacity="0.5"/></g><g transform="matrix(1, 0, 0, 1, -145.5, -145.5)" filter="url(#crl-c)"><circle cx="97" cy="97" r="97" transform="translate(198.5 145.5)" fill="#fff" opacity="0.6"/></g><g transform="matrix(1, 0, 0, 1, -145.5, -145.5)" filter="url(#crl-e)"><circle cx="97" cy="97" r="97" transform="translate(252.5 145.5)" fill="#fff" opacity="0.7"/></g><g transform="matrix(1, 0, 0, 1, -145.5, -145.5)" filter="url(#crl-g)"><circle cx="97" cy="97" r="97" transform="translate(305.5 145.5)" fill="#fff" opacity="0.8"/></g><g transform="matrix(1, 0, 0, 1, -145.5, -145.5)" filter="url(#crl-i)"><circle cx="97" cy="97" r="97" transform="translate(358.5 145.5)" fill="#fff" opacity="0.9"/></g><g transform="matrix(1, 0, 0, 1, -145.5, -145.5)" filter="url(#crl-k)"><circle cx="97" cy="97" r="97" transform="translate(406.5 145.5)" fill="#fff"/></g></g></svg>