<svg xmlns="http://www.w3.org/2000/svg" width="53.285" height="54.974" viewBox="0 0 53.285 54.974"><g transform="translate(-3.518)"><path d="M69.486,51.743A14.238,14.238,0,0,0,55.264,65.965a14.043,14.043,0,0,0,3.042,8.768c.393.5.805.979,1.242,1.485l.024.028a13.863,13.863,0,0,1,3.235,5.043,8.824,8.824,0,0,1,.127,1.9v1.086a1.8,1.8,0,0,0,1.8,1.8H74.16a1.8,1.8,0,0,0,1.8-1.8v-1.1a7.666,7.666,0,0,1,.124-1.76c.519-1.876,2.05-3.678,3.414-5.281l.059-.069c.393-.462.765-.9,1.1-1.329a14.043,14.043,0,0,0,3.045-8.774A14.238,14.238,0,0,0,69.486,51.743Zm8.346,20.769c-.3.377-.646.788-1.016,1.223l-.072.085c-1.593,1.873-3.4,4-4.129,6.641a8.1,8.1,0,0,0-.248,2.017H66.53a8.547,8.547,0,0,0-.249-2.131A17.069,17.069,0,0,0,62.3,73.9l-.024-.028c-.409-.475-.8-.923-1.139-1.36a10.478,10.478,0,0,1-2.271-6.542,10.621,10.621,0,1,1,21.241,0A10.478,10.478,0,0,1,77.832,72.512Z" transform="translate(-39.325 -39.323)" fill="#ff6c2b"/><path d="M98.44,196.91H89.013a1.8,1.8,0,1,0,0,3.6H98.44a1.8,1.8,0,1,0,0-3.6Z" transform="translate(-63.605 -149.643)" fill="#ff6c2b"/><path d="M103.545,214.018H98.831a1.8,1.8,0,1,0,0,3.6h4.713a1.8,1.8,0,0,0,0-3.6Z" transform="translate(-71.066 -162.645)" fill="#ff6c2b"/><path d="M192.638,103.491h-6.211a1.8,1.8,0,1,0,0,3.6h6.211a1.8,1.8,0,1,0,0-3.6Z" transform="translate(-137.635 -78.649)" fill="#ff6c2b"/><path d="M13.33,105.291a1.8,1.8,0,0,0-1.8-1.8H5.318a1.8,1.8,0,1,0,0,3.6H11.53A1.8,1.8,0,0,0,13.33,105.291Z" transform="translate(0 -78.649)" fill="#ff6c2b"/><path d="M108.81,9.813a1.8,1.8,0,0,0,1.8-1.8V1.8a1.8,1.8,0,0,0-3.6,0V8.013A1.8,1.8,0,0,0,108.81,9.813Z" transform="translate(-78.65)" fill="#ff6c2b"/><path d="M164.962,158.9a1.8,1.8,0,1,0-2.546,2.546l4.392,4.393a1.8,1.8,0,1,0,2.546-2.546Z" transform="translate(-120.355 -120.356)" fill="#ff6c2b"/><path d="M38.749,37.775A1.8,1.8,0,1,0,41.3,35.23l-4.39-4.392a1.8,1.8,0,0,0-2.546,2.545Z" transform="translate(-23.038 -23.035)" fill="#ff6c2b"/><path d="M38.751,158.9l-4.392,4.393a1.8,1.8,0,0,0,2.546,2.546l4.392-4.393a1.8,1.8,0,0,0-2.546-2.546Z" transform="translate(-23.037 -120.356)" fill="#ff6c2b"/><path d="M163.694,38.3a1.8,1.8,0,0,0,1.273-.527l4.391-4.392a1.8,1.8,0,0,0-2.546-2.546l-4.391,4.392a1.8,1.8,0,0,0,1.273,3.073Z" transform="translate(-120.359 -23.035)" fill="#ff6c2b"/></g></svg>