<svg xmlns="http://www.w3.org/2000/svg" width="110" height="110" viewBox="0 0 110 110"><g transform="translate(-269.16 -577.16)"><g transform="translate(269.16 577.16)" fill="#fff" stroke="#ff6c2b" stroke-width="2" stroke-dasharray="2 8"><circle cx="55" cy="55" r="55" stroke="none"/><circle cx="55" cy="55" r="54" fill="none"/></g><circle cx="49" cy="49" r="49" transform="translate(275.16 583.16)" fill="none"/><g transform="translate(300.762 609.048)"><g transform="translate(0.398 0.112)"><path d="M1.5,1.558h8.726V.166H.1V10.285H1.5Z" transform="translate(-0.09 -0.166)" fill="#ff6c2b"/><path d="M276.565.166V1.558h8.727v8.726h1.392V.166Z" transform="translate(-239.935 -0.166)" fill="#ff6c2b"/><path d="M1.392,276.4H0v10.119H10.118v-1.392H1.392Z" transform="translate(0 -239.816)" fill="#ff6c2b"/><path d="M285.183,285.129h-8.727v1.392h10.119V276.4h-1.392Z" transform="translate(-239.84 -239.816)" fill="#ff6c2b"/></g><g transform="translate(9.397 -5.895)"><path d="M89.138,33.24a.959.959,0,0,0,1.267,0c.229-.2,5.615-5,5.615-9.982a6.249,6.249,0,1,0-12.5,0C83.523,28.237,88.909,33.038,89.138,33.24Zm.633-11.615a1.633,1.633,0,1,1-1.62,1.633A1.627,1.627,0,0,1,89.772,21.625Z" transform="translate(-75.49)" fill="#ff6c2b"/><path d="M46.353,155.4l-.724-2.537a.958.958,0,0,0-.922-.7H39.541q-.28.416-.592.837a23.927,23.927,0,0,1-3.083,3.405,2.3,2.3,0,0,1-3.041,0A23.928,23.928,0,0,1,29.742,153q-.313-.42-.592-.837H23.983a.958.958,0,0,0-.922.7l-.863,3.023,19.285,3.532Z" transform="translate(-20.064 -122.159)" fill="#ff6c2b"/><path d="M193,206.376l-1.849-6.481-9.176,7.7h10.1a.958.958,0,0,0,.921-1.222Z" transform="translate(-164.474 -165.3)" fill="#ff6c2b"/><path d="M4.693,204.848l-2.927-.536L.037,210.369a.958.958,0,0,0,.922,1.221H4.693Z" transform="translate(0 -169.292)" fill="#ff6c2b"/><path d="M62.746,212.445v6.5h9.379l4.672-3.922Z" transform="translate(-56.711 -176.643)" fill="#ff6c2b"/></g></g></g></svg>