<svg xmlns="http://www.w3.org/2000/svg" width="20" height="20"><path d="M10 20A10.011 10.011 0 010 10 10.011 10.011 0 0110 0a10.011 10.011 0 0110 10 10.011 10.011 0 01-10 10zm-5.84-4.73a7.925 7.925 0 004.3 1.256 8.236 8.236 0 002.809-.472 7.144 7.144 0 002.242-1.274 8.62 8.62 0 001.607-1.829 8.044 8.044 0 001-2.159 8.072 8.072 0 00.328-2.252v-.368a5.4 5.4 0 001.391-1.457 5.752 5.752 0 01-1.6.445 2.687 2.687 0 001.223-1.558 5.673 5.673 0 01-1.779.69 2.708 2.708 0 00-2.047-.89 2.727 2.727 0 00-1.992.823 2.711 2.711 0 00-.823 1.98 3.17 3.17 0 00.078.645 7.927 7.927 0 01-3.232-.862 7.842 7.842 0 01-2.552-2.075 2.742 2.742 0 00-.39 1.413 2.751 2.751 0 00.339 1.34 2.765 2.765 0 00.917 1A2.654 2.654 0 014.7 9.321v.033a2.732 2.732 0 00.64 1.786 2.715 2.715 0 001.618.962 2.751 2.751 0 01-.745.1 2.712 2.712 0 01-.523-.044 2.752 2.752 0 00.991 1.391 2.711 2.711 0 001.634.556 5.539 5.539 0 01-3.493 1.2 8.566 8.566 0 01-.662-.036z"/></svg>