<svg xmlns="http://www.w3.org/2000/svg" width="130" height="130" viewBox="0 0 130 130"><g transform="translate(-269.172 -577.172)"><g transform="translate(269.172 577.172)" fill="#fff" stroke="#ff6c2b" stroke-width="2" stroke-dasharray="2 8"><circle cx="65" cy="65" r="65" stroke="none"/><circle cx="65" cy="65" r="64" fill="none"/></g><circle cx="55" cy="55" r="55" transform="translate(279.172 587.172)" fill="none"/><g transform="translate(298.495 606.774)"><g transform="translate(0 0)"><g transform="translate(20.644 12.641)"><path d="M66.565,21.176a.935.935,0,0,0-.35.938.924.924,0,0,0,.7.7c.289.063.557.059,1.381-.574a7.538,7.538,0,0,0,1.407-1.415l.218-.29c1.871-2.488,6.251-8.314,12.577-8,5.217.381,8.916,4.321,10.694,11.395.06.24.1.388.139.5.272,1.157.728,2.6,1.384,3.072a.921.921,0,0,0,1.12-1.462,8.254,8.254,0,0,1-.727-2.1.889.889,0,0,0-.05-.152c-.017-.06-.05-.191-.079-.309a22.961,22.961,0,0,0-2.847-6.9A12,12,0,0,0,82.625,10.7h-.02c-7.308-.374-12.1,6.005-14.152,8.729l-.216.286a5.52,5.52,0,0,1-1.451,1.336A.937.937,0,0,0,66.565,21.176Z" transform="translate(-66.166 -10.685)" fill="#ff6c2b"/><path d="M89.806,76.988a6.19,6.19,0,0,0,.046-4.922,5.028,5.028,0,0,0-3.2-2.6c-2.2-.674-4.873.549-7.319,3.352a41.848,41.848,0,0,1-7.17,5.936,25.192,25.192,0,0,1-5.5,2.384.921.921,0,0,0,.485,1.777,26.729,26.729,0,0,0,5.972-2.587,42.893,42.893,0,0,0,7.6-6.292c1.485-1.7,3.683-3.333,5.4-2.808a3.2,3.2,0,0,1,2.08,1.634A4.358,4.358,0,0,1,88.1,76.3c-.939,2.345-3.86,5.177-8.229,7.974a96.7,96.7,0,0,1-11.6,6.512.921.921,0,0,0,.723,1.693,98.576,98.576,0,0,0,11.87-6.654C84.177,83.705,88.421,80.447,89.806,76.988Z" transform="translate(-65.983 -61.324)" fill="#ff6c2b"/><path d="M77.184,44.543c-.419.461-.793.955-1.2,1.427a18.817,18.817,0,0,1-1.712,1.742,9.954,9.954,0,0,1-1.856,1.383c-.776.446-1.568.9-2.373,1.289a5.126,5.126,0,0,1-.825.317.921.921,0,0,0,.489,1.777,13.029,13.029,0,0,0,2.646-1.251,18.247,18.247,0,0,0,2.091-1.278,20.169,20.169,0,0,0,3.412-3.37c.412-.506.853-.988,1.313-1.451.252-.253.512-.5.777-.735.139-.124.279-.245.421-.364.072-.06.145-.12.218-.179l.2-.158a13.556,13.556,0,0,1,2.044-1.3,8.313,8.313,0,0,1,2.187-.765,3.924,3.924,0,0,1,.539-.084.94.94,0,0,0,.921-.921.923.923,0,0,0-.921-.921C82.226,40.044,79.378,42.126,77.184,44.543Z" transform="translate(-68.195 -35.756)" fill="#ff6c2b"/><path d="M71.317,115.868c2-.687,12.276-4.523,18.028-12.588a.921.921,0,0,0-1.5-1.07c-5.427,7.607-15.22,11.26-17.128,11.916l-.074.026a.922.922,0,0,0,.327,1.783.933.933,0,0,0,.314-.056Z" transform="translate(-69.497 -89.443)" fill="#ff6c2b"/><path d="M117.224,211.941a19.6,19.6,0,0,1-4.349-2.614c-2.189-1.558-4.077-2.9-5.617-2.639-1.157.2-3.177,1.491-6.367,3.594-2.3,1.516-4.907,3.234-6.04,3.54a.922.922,0,0,0,.239,1.811.911.911,0,0,0,.24-.032c1.421-.383,3.925-2.033,6.576-3.78,2.141-1.412,4.806-3.168,5.667-3.317.782-.134,2.7,1.228,4.235,2.324a20.7,20.7,0,0,0,4.835,2.861.922.922,0,0,0,.583-1.749Z" transform="translate(-90.34 -180.033)" fill="#ff6c2b"/><path d="M136.094,253.248a22.238,22.238,0,0,1-3.117-1.735c-2.466-1.523-4.032-2.448-5.157-2.254s-3.531,1.823-7.546,4.754c-.492.358-.916.669-1.21.877a.921.921,0,1,0,1.063,1.5c.306-.216.735-.53,1.233-.893,1.6-1.166,5.843-4.266,6.764-4.425.574-.039,2.647,1.239,3.886,2a22.247,22.247,0,0,0,3.459,1.9.921.921,0,1,0,.626-1.732Z" transform="translate(-111.516 -216.828)" fill="#ff6c2b"/><path d="M156.347,294.633c-.517-.338-.993-.677-1.453-1.006-1.511-1.078-2.816-2.011-4.247-1.762-1.612.278-4.178,2.859-4.677,3.373a.921.921,0,1,0,1.324,1.281c1.233-1.274,2.985-2.722,3.666-2.839s1.688.608,2.865,1.447c.452.324.965.69,1.515,1.049a.921.921,0,1,0,1.006-1.543Z" transform="translate(-134.881 -253.634)" fill="#ff6c2b"/><path d="M250.611,146.213a8.661,8.661,0,0,1-2.216-1.2,3.524,3.524,0,0,1-1.191-2.266c-.192-1.17-1.967-.672-1.776.49.393,2.39,2.152,3.683,4.254,4.571a.944.944,0,0,0,1.26-.331A.921.921,0,0,0,250.611,146.213Z" transform="translate(-221.039 -124.227)" fill="#ff6c2b"/><path d="M226.419,176.106a8.548,8.548,0,0,1-1.949-.916,7.34,7.34,0,0,1-3.157-3.406.943.943,0,0,0-1.133-.643.923.923,0,0,0-.643,1.133,10.118,10.118,0,0,0,6.393,5.607C227.068,178.233,227.551,176.455,226.419,176.106Z" transform="translate(-198.635 -149.314)" fill="#ff6c2b"/></g><path d="M2.228,2.29H15.539V.166H.1V15.6H2.228Z" transform="translate(-0.083 -0.166)" fill="#ff6c2b"/><path d="M276.565.166V2.29h13.312V15.6H292V.166Z" transform="translate(-220.69 -0.166)" fill="#ff6c2b"/><path d="M2.124,276.4H0v15.435H15.434v-2.124H2.124Z" transform="translate(0 -220.594)" fill="#ff6c2b"/><path d="M289.768,289.713H276.456v2.124h15.436V276.4h-2.124Z" transform="translate(-220.604 -220.594)" fill="#ff6c2b"/></g></g></g></svg>